Patient4_TMGait_0pt8_01_left_48_GRF.mot
version=1
nRows=65
nColumns=19
inDegrees=no
endheader
time	F1x	F1y	F1z	M1x	M1y	M1z	F2x	F2y	F2z	M2x	M2y	M2z	EC1x	EC1y	EC1z	EC2x	EC2y	EC2z
53.44	-7.2968	-9.4047	7.3107	1.148	-6.7533	-15.2511	-34.9562	731.0645	-65.7169	254.9038	98.5504	849.0729	-0.0592	0.0182	-0.0073	-0.0462	0.0165	0.9585
53.4515	-5.046	-5.3482	4.9621	0.38919	-4.6455	-8.8765	-32.9247	730.9776	-68.4194	255.7446	98.2367	846.2519	-0.0592	0.0182	-0.0073	-0.0462	0.0165	0.9585
53.463	-3.1215	-1.9383	3.0024	-0.24884	-2.8806	-3.5514	-30.373	731.9564	-70.5069	256.8695	97.3298	843.428	-0.0592	0.0182	-0.0073	-0.0462	0.0165	0.9585
53.4745	-1.6574	0.65705	1.522	-0.74141	-1.5481	0.47935	-27.3007	734.0137	-71.8716	258.2621	95.8022	840.6482	-0.0592	0.0182	-0.0073	-0.0462	0.0165	0.9585
53.486	-0.64499	2.4526	0.52629	-1.0893	-0.65546	3.2522	-23.7329	737.0008	-72.5531	259.8823	93.7026	837.8937	-0.0592	0.0182	-0.0073	-0.0462	0.0165	0.9585
53.4975	-0.047375	3.5705	-0.081302	-1.3131	-0.12474	4.9604	-19.7149	740.7808	-72.6658	261.7011	91.1258	835.2078	-0.0592	0.0182	-0.0073	-0.0462	0.0165	0.9585
53.509	0.23963	4.1593	-0.38643	-1.4354	0.12047	5.8401	-15.3519	745.2105	-72.3616	263.6891	88.208	832.6458	-0.0592	0.0182	-0.0073	-0.0462	0.0165	0.9585
53.5205	0.28696	4.3679	-0.49162	-1.4781	0.16771	6.131	-10.7816	750.1407	-71.7622	265.8061	85.0716	830.2606	-0.0592	0.0182	-0.0073	-0.0462	0.0165	0.9585
53.532	0.16284	4.2833	-0.47525	-1.4471	0.084908	5.9779	-6.1591	755.3283	-71.0157	267.9653	81.8743	827.9999	-0.0592	0.0182	-0.0073	-0.0462	0.0165	0.9585
53.5435	-0.085039	3.9432	-0.38835	-1.3338	-0.082518	5.4706	-1.622	760.3484	-70.2247	270.0105	78.7349	825.6018	-0.0592	0.0182	-0.0073	-0.0462	0.0165	0.9585
53.555	-0.41029	3.294	-0.28505	-1.1078	-0.28058	4.5643	2.7581	764.624	-69.5048	271.7278	75.7694	822.5795	-0.0592	0.0182	-0.0073	-0.0462	0.0165	0.9585
53.5665	-0.78128	2.2674	-0.1795	-0.73402	-0.48786	3.1937	6.9801	767.5221	-68.9201	272.8846	73.0246	818.3422	-0.0592	0.0182	-0.0073	-0.0462	0.0165	0.9585
53.578	-1.1124	0.79155	-0.11107	-0.18186	-0.64204	1.263	11.0709	768.4438	-68.4862	273.2678	70.4912	812.3209	-0.0592	0.0182	-0.0073	-0.0462	0.0165	0.9585
53.5895	-1.3424	-1.1659	-0.075021	0.56211	-0.72045	-1.2645	15.0733	766.9725	-68.1973	272.7335	68.1416	804.1267	-0.0592	0.0182	-0.0073	-0.0462	0.0165	0.9585
53.601	-1.3358	-3.5572	-0.099546	1.4737	-0.64576	-4.3449	18.9727	762.9071	-68.0174	271.2223	65.9435	793.5865	-0.0592	0.0182	-0.0073	-0.0462	0.0165	0.9585
53.6125	-0.94802	-6.1717	-0.18783	2.4674	-0.35192	-7.7122	22.6861	756.2585	-67.9354	268.7487	63.9134	780.7486	-0.0592	0.0182	-0.0073	-0.0462	0.0165	0.9585
53.624	0.023325	-8.5486	-0.37266	3.3592	0.27634	-10.7873	26.1209	747.1954	-67.9455	265.3857	62.0774	765.8065	-0.0592	0.0182	-0.0073	-0.0462	0.0165	0.9585
53.6355	1.7944	-9.8548	-0.66202	3.8299	1.3406	-12.4935	29.1573	736.0583	-68.0609	261.2675	60.4805	749.126	-0.0592	0.0182	-0.0073	-0.0462	0.0165	0.9585
53.647	4.5859	-8.8173	-1.0686	3.3901	2.9441	-11.2174	31.7764	723.3848	-68.2792	256.5953	59.1294	731.244	-0.0592	0.0182	-0.0073	-0.0462	0.0165	0.9585
53.6585	8.5139	-3.6685	-1.5652	1.3678	5.1064	-4.7003	33.9834	709.7683	-68.5774	251.5899	57.9997	712.7486	-0.0592	0.0182	-0.0073	-0.0462	0.0165	0.9585
53.67	13.5443	7.7902	-2.0936	-3.0717	7.7369	9.8593	35.8752	695.7439	-68.8817	246.4478	56.9992	694.1505	-0.0592	0.0182	-0.0073	-0.0462	0.0165	0.9585
53.6815	19.2703	27.9768	-2.5358	-10.8385	10.5261	35.5605	37.5532	681.634	-69.0753	241.2879	55.9895	675.7653	-0.0592	0.0182	-0.0073	-0.0462	0.0165	0.9585
53.693	24.8042	59.0774	-2.7034	-22.7467	12.8776	75.2138	39.1411	667.4052	-69.0123	236.1029	54.7984	657.5612	-0.0592	0.0182	-0.0073	-0.0462	0.0165	0.9585
53.7045	28.5248	102.2987	-2.3211	-39.2284	13.7979	130.4119	40.7307	652.6605	-68.523	230.7514	53.241	639.1777	-0.0592	0.0182	-0.0073	-0.0462	0.0165	0.9585
53.716	28.151	157.1018	-0.98648	-60.0542	11.9254	200.5112	42.417	636.5558	-67.4693	224.9365	51.1614	619.8051	-0.0592	0.0182	-0.0073	-0.0462	0.0165	0.9585
53.7275	22.1283	221.5358	1.6967	-84.4458	6.1873	283.122	44.2321	617.9612	-65.7499	218.2556	48.4554	598.3756	-0.0592	0.0182	-0.0073	-0.0462	0.0165	0.9585
53.739	10.9632	292.7171	6.0087	-111.242	-3.6033	374.5369	46.119	595.5682	-63.3531	210.2429	45.1298	573.6564	-0.0592	0.0182	-0.0073	-0.0462	0.0165	0.9585
53.7505	-3.598	365.5428	12.2208	-138.4517	-17.1161	468.0154	47.8698	568.0696	-60.2913	200.4367	41.2647	544.4639	-0.0592	0.0182	-0.0073	-0.0462	0.0165	0.9585
53.762	-19.2885	433.3689	20.4297	-163.6116	-33.4533	554.6803	49.2054	534.3333	-56.625	188.4492	37.0176	509.7658	-0.0592	0.0182	-0.0073	-0.0462	0.0165	0.9585
53.7735	-34.0326	492.4538	29.4684	-185.3904	-50.3784	629.3854	49.7574	493.8455	-52.342	174.1074	32.516	469.1263	-0.0592	0.0182	-0.0073	-0.0462	0.0165	0.9585
53.785	-46.6644	542.6042	38.2937	-203.7921	-66.0801	691.7284	49.1237	446.8445	-47.4465	157.5028	27.9088	422.8061	-0.0592	0.0182	-0.0073	-0.0462	0.0165	0.9585
53.7965	-56.6376	585.2946	45.8503	-219.4556	-79.0771	743.5748	46.9397	394.4002	-42.0062	139.006	23.3865	371.8467	-0.0592	0.0182	-0.0073	-0.0462	0.0165	0.9585
53.808	-63.6941	621.8562	51.7111	-232.9395	-88.7331	786.6462	43.0011	338.2973	-36.1605	119.2372	19.1499	317.9278	-0.0592	0.0182	-0.0073	-0.0462	0.0165	0.9585
53.8195	-67.7652	652.9315	55.7575	-244.5104	-94.9064	821.8473	37.3479	280.9913	-30.1928	99.0429	15.4485	263.3513	-0.0592	0.0182	-0.0073	-0.0462	0.0165	0.9585
53.831	-68.8991	678.7462	58.2354	-254.2402	-97.9626	849.4993	30.3579	225.2872	-24.4308	79.3983	12.4533	210.6902	-0.0592	0.0182	-0.0073	-0.0462	0.0165	0.9585
53.8425	-67.4781	699.6032	59.6636	-262.1916	-98.7024	870.1455	22.722	173.8691	-19.2123	61.2447	10.2193	162.3707	-0.0592	0.0182	-0.0073	-0.0462	0.0165	0.9585
53.854	-63.9518	715.8616	60.4434	-268.453	-97.8575	884.4184	15.3381	128.7724	-14.7031	45.3077	8.5757	120.1676	-0.0592	0.0182	-0.0073	-0.0462	0.0165	0.9585
53.8655	-58.9566	728.0272	61.1282	-273.1534	-96.3299	893.1865	8.9435	91.0195	-10.9599	31.9636	7.3029	84.9274	-0.0592	0.0182	-0.0073	-0.0462	0.0165	0.9585
53.877	-52.9908	736.5678	61.9324	-276.4421	-94.6046	897.1872	3.979	60.7864	-7.886	21.2889	6.1569	56.7432	-0.0592	0.0182	-0.0073	-0.0462	0.0165	0.9585
53.8885	-46.5611	742.0806	63.0652	-278.5186	-93.0939	897.3463	0.50635	37.6483	-5.391	13.1358	5.0305	35.21	-0.0592	0.0182	-0.0073	-0.0462	0.0165	0.9585
53.9	-40.0055	745.1596	64.3736	-279.6188	-91.7547	894.461	-1.589	20.8225	-3.4012	7.2239	3.8988	19.5801	-0.0592	0.0182	-0.0073	-0.0462	0.0165	0.9585
53.9115	-33.6229	746.3892	65.6822	-279.9756	-90.4771	889.3774	-2.5682	9.3808	-1.8819	3.2156	2.8174	8.9966	-0.0592	0.0182	-0.0073	-0.0462	0.0165	0.9585
53.923	-27.5682	746.1737	66.7378	-279.7681	-89.0239	882.6362	-2.7374	2.3098	-0.81563	0.74676	1.8758	2.494	-0.0592	0.0182	-0.0073	-0.0462	0.0165	0.9585
53.9345	-22.0348	744.8005	67.3008	-279.1206	-87.1805	874.6518	-2.4622	-1.3982	-0.13879	-0.54704	1.1373	-0.87056	-0.0592	0.0182	-0.0073	-0.0462	0.0165	0.9585
53.946	-17.0468	742.41	67.3137	-278.09	-84.8772	865.6261	-1.9759	-2.7897	0.22774	-1.033	0.60931	-2.0918	-0.0592	0.0182	-0.0073	-0.0462	0.0165	0.9585
53.9575	-12.6863	739.1494	66.7917	-276.7143	-82.1446	855.7776	-1.4595	-2.729	0.38509	-1.0152	0.25897	-1.9666	-0.0592	0.0182	-0.0073	-0.0462	0.0165	0.9585
53.969	-8.9362	735.2378	65.9602	-275.0462	-79.2129	845.3987	-0.9878	-1.9081	0.40188	-0.73213	0.05296	-1.1528	-0.0592	0.0182	-0.0073	-0.0462	0.0165	0.9585
53.9805	-5.8211	731.1002	64.9721	-273.2048	-76.2622	835.0458	-0.61593	-0.79983	0.34786	-0.34642	-0.049535	-0.074698	-0.0592	0.0182	-0.0073	-0.0462	0.0165	0.9585
53.992	-3.3252	727.2125	64.0222	-271.3343	-73.5141	825.3139	-0.33808	0.27765	0.25975	0.035237	-0.077833	0.95361	-0.0592	0.0182	-0.0073	-0.0462	0.0165	0.9585
54.0035	-1.4413	724.117	63.189	-269.6009	-71.0747	816.8668	-0.16436	1.1835	0.16344	0.36389	-0.052289	1.8125	-0.0592	0.0182	-0.0073	-0.0462	0.0165	0.9585
54.015	-0.048055	722.26	62.5099	-268.1445	-68.9737	810.19	-0.063431	1.8391	0.069953	0.61563	0.0086359	2.4293	-0.0592	0.0182	-0.0073	-0.0462	0.0165	0.9585
54.0265	0.95986	721.8899	62.0329	-267.0409	-67.2319	805.5161	-0.01875	2.2775	-0.017446	0.79815	0.093483	2.8496	-0.0592	0.0182	-0.0073	-0.0462	0.0165	0.9585
54.038	1.7758	722.9665	61.7793	-266.2707	-65.8232	802.7148	-0.0020033	2.5212	-0.092476	0.9181	0.18193	3.0696	-0.0592	0.0182	-0.0073	-0.0462	0.0165	0.9585
54.0495	2.5449	725.1435	61.8471	-265.7122	-64.7988	801.3264	-0.023542	2.6398	-0.15166	0.99235	0.26333	3.1671	-0.0592	0.0182	-0.0073	-0.0462	0.0165	0.9585
54.061	3.4137	727.9138	62.2218	-265.1992	-64.1108	800.6904	-0.055641	2.6883	-0.19567	1.0356	0.32534	3.1968	-0.0592	0.0182	-0.0073	-0.0462	0.0165	0.9585
54.0725	4.4646	730.7137	62.9267	-264.5549	-63.7624	800.137	-0.11472	2.716	-0.22394	1.0627	0.36869	3.2241	-0.0592	0.0182	-0.0073	-0.0462	0.0165	0.9585
54.084	5.7335	732.9941	63.8676	-263.6262	-63.656	799.0006	-0.16212	2.756	-0.24521	1.0829	0.40046	3.2815	-0.0592	0.0182	-0.0073	-0.0462	0.0165	0.9585
54.0955	7.2134	734.3001	64.9904	-262.3012	-63.7369	796.7555	-0.22278	2.8097	-0.25821	1.0964	0.43082	3.384	-0.0592	0.0182	-0.0073	-0.0462	0.0165	0.9585
54.107	8.913	734.3362	66.1812	-260.5309	-63.8886	793.0582	-0.27143	2.8386	-0.27836	1.0922	0.47242	3.4737	-0.0592	0.0182	-0.0073	-0.0462	0.0165	0.9585
54.1185	10.8369	733.0185	67.3709	-258.3358	-64.033	787.7827	-0.32992	2.7859	-0.30871	1.0509	0.53412	3.4733	-0.0592	0.0182	-0.0073	-0.0462	0.0165	0.9585
54.13	13.0341	730.4927	68.5044	-255.8104	-64.0832	781.0635	-0.38651	2.5541	-0.35958	0.94011	0.62482	3.2396	-0.0592	0.0182	-0.0073	-0.0462	0.0165	0.9585
54.1415	15.6082	727.1456	69.5577	-253.1178	-63.9668	773.2819	-0.45618	2.0613	-0.43798	0.72865	0.7573	2.6596	-0.0592	0.0182	-0.0073	-0.0462	0.0165	0.9585
54.153	18.6383	723.5791	70.5782	-250.4791	-63.6826	765.0487	-0.51986	1.1882	-0.54442	0.37711	0.92646	1.5664	-0.0592	0.0182	-0.0073	-0.0462	0.0165	0.9585
54.1645	22.2287	720.5838	71.6139	-248.169	-63.2319	757.167	-0.55914	-0.13603	-0.67953	-0.13885	1.1211	-0.13689	-0.0592	0.0182	-0.0073	-0.0462	0.0165	0.9585
54.176	26.4064	719.0601	72.7558	-246.4895	-62.6745	750.5493	-0.52554	-1.9495	-0.81626	-0.82909	1.2866	-2.505	-0.0592	0.0182	-0.0073	-0.0462	0.0165	0.9585
